# xmcd
#
# Track frame offsets:
# 150
# 22524
# 38928
# 58307
# 79435
# 95358
# 112159
# 134786
# 153935
# 172074
# 187554
# 213551
# 230494
# 249448
# 274468
#
# Disc length: 3800 seconds
#
# Revision: 0
# Processed by: cddbd v1.5.1PL0 Copyright (c) Steve Scherf et al.
# Submitted via: Audion 3.0.2 (http://www.panic.com/audion/)
#
DISCID=d50ed60f
DTITLE=Downhome Quartet - Downhome - At The Cross
DYEAR=1900
DGENRE=
TTITLE0=Poor Boy, Long Way From Home
TTITLE1=It Nust Have Been The Blood
TTITLE2=Mr. Downchild
TTITLE3=The Saints
TTITLE4=Sleepwalk
TTITLE5=Feel Like Coming Home
TTITLE6=Just A Closer Walk With Thee
TTITLE7=Red Man
TTITLE8=Worried Head
TTITLE9=Mean Red Spider
TTITLE10=The Old Rugged Cross At The Cross
TTITLE11=The Death Of Little Walter
TTITLE12=Jumper On The Line
TTITLE13=Let's Get Funky
TTITLE14=Amazing Grace
EXTD=
EXTT0=
EXTT1=
EXTT2=
EXTT3=
EXTT4=
EXTT5=
EXTT6=
EXTT7=
EXTT8=
EXTT9=
EXTT10=
EXTT11=
EXTT12=
EXTT13=
EXTT14=
PLAYORDER=
